<svg width="30" height="30" viewBox="0 0 30 30" fill="none" xmlns="http://www.w3.org/2000/svg">
<rect width="30" height="30" rx="5" fill="white"/>
<g clip-path="url(#clip0_16:602)">
<path d="M17.5418 9.16671C18.3557 9.32551 19.1038 9.72359 19.6902 10.31C20.2766 10.8964 20.6746 11.6444 20.8334 12.4584M17.5418 5.83337C19.2328 6.02124 20.8098 6.77852 22.0136 7.98088C23.2175 9.18324 23.9768 10.7592 24.1668 12.45M23.3334 19.1V21.6C23.3344 21.8321 23.2868 22.0618 23.1939 22.2745C23.1009 22.4871 22.9645 22.678 22.7935 22.8349C22.6225 22.9918 22.4206 23.1113 22.2007 23.1856C21.9809 23.26 21.7479 23.2876 21.5168 23.2667C18.9525 22.9881 16.4893 22.1118 14.3251 20.7084C12.3116 19.4289 10.6046 17.7219 9.32511 15.7084C7.91676 13.5344 7.04031 11.0592 6.76677 8.48337C6.74595 8.25293 6.77334 8.02067 6.84719 7.80139C6.92105 7.58211 7.03975 7.38061 7.19575 7.20972C7.35174 7.03883 7.54161 6.9023 7.75327 6.80881C7.96492 6.71532 8.19372 6.66693 8.42511 6.66671H10.9251C11.3295 6.66273 11.7216 6.80594 12.0282 7.06965C12.3349 7.33336 12.5352 7.69958 12.5918 8.10004C12.6973 8.9001 12.893 9.68565 13.1751 10.4417C13.2872 10.74 13.3115 11.0641 13.245 11.3758C13.1786 11.6874 13.0242 11.9735 12.8001 12.2L11.7418 13.2584C12.9281 15.3447 14.6555 17.0721 16.7418 18.2584L17.8001 17.2C18.0267 16.976 18.3127 16.8216 18.6244 16.7551C18.936 16.6887 19.2602 16.7129 19.5584 16.825C20.3145 17.1072 21.1001 17.3029 21.9001 17.4084C22.3049 17.4655 22.6746 17.6694 22.9389 17.9813C23.2032 18.2932 23.3436 18.6914 23.3334 19.1Z" stroke="#17181C" stroke-width="2" stroke-linecap="round" stroke-linejoin="round"/>
</g>
<defs>
<clipPath id="clip0_16:602">
<rect width="20" height="20" fill="white" transform="translate(5 5)"/>
</clipPath>
</defs>
</svg>
