<svg width="30" height="30" viewBox="0 0 30 30" fill="none" xmlns="http://www.w3.org/2000/svg">
<rect width="30" height="30" rx="5" fill="white"/>
<g clip-path="url(#clip0_16:590)">
<path d="M21.5958 15.8569C21.2725 15.4485 21.365 15.2669 21.5958 14.9019C21.6 14.8977 24.2692 11.2094 24.5442 9.95854L24.5458 9.9577C24.6825 9.50187 24.5458 9.16687 23.885 9.16687H21.6983C21.1417 9.16687 20.885 9.45437 20.7475 9.77604C20.7475 9.77604 19.6342 12.441 18.0592 14.1685C17.5508 14.6677 17.3158 14.8277 17.0383 14.8277C16.9017 14.8277 16.6892 14.6677 16.6892 14.2119V9.9577C16.6892 9.41104 16.5333 9.16687 16.0725 9.16687H12.6342C12.285 9.16687 12.0775 9.42187 12.0775 9.65937C12.0775 10.1777 12.865 10.2969 12.9467 11.7552V14.9194C12.9467 15.6127 12.8208 15.7402 12.5417 15.7402C11.7983 15.7402 9.99417 13.0644 8.925 10.0019C8.70917 9.4077 8.49833 9.1677 7.9375 9.1677H5.75C5.12583 9.1677 5 9.4552 5 9.77687C5 10.3452 5.74333 13.171 8.45667 16.9044C10.265 19.4527 12.8117 20.8335 15.1283 20.8335C16.5208 20.8335 16.6908 20.5269 16.6908 19.9994C16.6908 17.5644 16.565 17.3344 17.2625 17.3344C17.5858 17.3344 18.1425 17.4944 19.4425 18.7235C20.9283 20.181 21.1725 20.8335 22.0042 20.8335H24.1908C24.8142 20.8335 25.13 20.5269 24.9483 19.9219C24.5325 18.6494 21.7225 16.0319 21.5958 15.8569Z" fill="#17181C"/>
</g>
<defs>
<clipPath id="clip0_16:590">
<rect width="20" height="20" fill="white" transform="translate(5 5)"/>
</clipPath>
</defs>
</svg>
